<svg id="Capa_1" enable-background="new 0 0 512.004 512.004" height="512" viewBox="0 0 512.004 512.004" width="512" xmlns="http://www.w3.org/2000/svg"><path id="XMLID_3603_" d="m0 25.901c0-11.684 9.472-21.156 21.156-21.156h469.692c11.684 0 21.156 9.472 21.156 21.156v53.531c0 5.838-4.732 10.57-10.57 10.57h-490.864c-5.838 0-10.57-4.732-10.57-10.57z" fill="#47578a"/><path id="XMLID_3692_" d="m490.848 4.745c11.684 0 21.156 9.472 21.156 21.156v53.531c0 5.838-4.732 10.57-10.57 10.57h-245.432v-85.257z" fill="#293a71"/><path id="XMLID_3584_" d="m512.004 79.68v273.625c0 11.684-9.472 21.156-21.156 21.156h-475.846c-8.285-.001-15.002-6.717-15.002-15.003v-279.778z" fill="#f2f3fb"/><path id="XMLID_3693_" d="m512.004 79.68v273.625c0 11.684-9.472 21.156-21.156 21.156h-234.846v-294.781z" fill="#d9dafb"/><circle id="XMLID_3598_" cx="446.515" cy="45.613" fill="#ca2e17" r="14.947"/><circle id="XMLID_3597_" cx="104.207" cy="45.613" fill="#1b97fb" r="14.947"/><circle id="XMLID_3596_" cx="51.948" cy="45.613" fill="#fcc418" r="14.947"/><path id="XMLID_578_" d="m388.715 387.446h-217.027v-216.271c0-14.562-11.847-26.408-26.408-26.408h-67.135c-14.562 0-26.408 11.847-26.408 26.408v320.538c0 5.717 3.198 10.688 7.903 13.22 2.382 1.507 5.161 2.326 8.024 2.326h321.051c14.562 0 26.408-11.847 26.408-26.408v-66.997c.001-14.562-11.846-26.408-26.408-26.408z" fill="#fff267"/><path id="XMLID_554_" d="m388.715 387.446h-132.713v119.813h132.713c14.562 0 26.408-11.847 26.408-26.408v-66.997c.001-14.562-11.846-26.408-26.408-26.408z" fill="#fedc37"/><path id="XMLID_576_" d="m348.49 163.113c-7.436-2.224-15.268 2.003-17.49 9.44l-29.498 98.679c-2.223 7.436 2.003 15.267 9.439 17.49 1.343.401 2.698.592 4.031.592 6.05 0 11.638-3.938 13.459-10.032l29.498-98.679c2.223-7.436-2.002-15.267-9.439-17.49z" fill="#1b97fb"/><path id="XMLID_487_" d="m234.871 229.285 38.935-43.313c5.189-5.772 4.716-14.658-1.056-19.847-5.773-5.189-14.66-4.715-19.847 1.057l-48.135 53.547c-5.112 5.687-4.739 14.417.839 19.647l48.135 45.132c2.712 2.542 6.164 3.802 9.609 3.802 3.749 0 7.488-1.491 10.255-4.441 5.309-5.662 5.022-14.556-.64-19.864z" fill="#1b97fb"/><path id="XMLID_347_" d="m454.663 220.73-48.135-53.547c-5.188-5.772-14.073-6.245-19.847-1.057-5.771 5.189-6.245 14.075-1.056 19.847l38.935 43.313-38.096 35.719c-5.662 5.309-5.948 14.202-.64 19.864 2.767 2.951 6.506 4.441 10.255 4.441 3.445 0 6.898-1.259 9.609-3.802l48.135-45.132c5.579-5.229 5.952-13.96.84-19.646z" fill="#1b97fb"/><path id="XMLID_591_" d="m256.002 249.098v-43.319l-21.131 23.506z" fill="none"/><g fill="#2eb3f2"><path id="XMLID_585_" d="m234.871 229.285 21.131-23.507v-41.172c-1.124.691-2.172 1.545-3.098 2.576l-48.135 53.547c-5.112 5.687-4.739 14.417.839 19.647l48.135 45.132c.707.663 1.466 1.233 2.26 1.722v-38.133z"/><path id="XMLID_594_" d="m110.398 193.769c0 8.285 6.717 15.002 15.002 15.002h46.288v-30.004h-46.288c-8.285 0-15.002 6.717-15.002 15.002z"/><path id="XMLID_592_" d="m110.398 248.102c0 8.285 6.717 15.002 15.002 15.002h46.288v-30.004h-46.288c-8.285 0-15.002 6.717-15.002 15.002z"/><path id="XMLID_590_" d="m110.398 302.435c0 8.285 6.717 15.002 15.002 15.002h46.288v-30.004h-46.288c-8.285 0-15.002 6.717-15.002 15.002z"/><path id="XMLID_588_" d="m110.398 356.769c0 8.285 6.717 15.002 15.002 15.002h46.288v-30.004h-46.288c-8.285 0-15.002 6.717-15.002 15.002z"/><path id="XMLID_586_" d="m201.667 448.687c8.285 0 15.002-6.717 15.002-15.002v-46.239h-30.004v46.239c0 8.285 6.717 15.002 15.002 15.002z"/><path id="XMLID_584_" d="m256 448.687c-8.285 0-15.002-6.717-15.002-15.002v-46.24h30.004v46.24c0 8.285-6.717 15.002-15.002 15.002z"/></g><path id="XMLID_582_" d="m310.334 448.687c8.285 0 15.002-6.717 15.002-15.002v-46.24h-30.004v46.24c0 8.285 6.717 15.002 15.002 15.002z" fill="#1b97fb"/><path id="XMLID_579_" d="m364.667 448.687c8.285 0 15.002-6.717 15.002-15.002v-46.24h-30.004v46.24c0 8.285 6.717 15.002 15.002 15.002z" fill="#1b97fb"/><path id="XMLID_345_" d="m271.002 387.446v46.24c0 8.285-6.717 15.002-15.002 15.002-.001 0-.001 0-.002 0v-61.241h15.004z" fill="#1b97fb"/></svg>