<?xml version="1.0" standalone="no"?>
<svg
  width="600"
  height="600"
  viewBox="0 0 600 600"
  xmlns="http://www.w3.org/2000/svg"
>
  <g transform="translate(300,300)">
    <path d="M151.1,-199C196.5,-175.1,234.2,-131.7,232,-87.4C229.8,-43.2,187.7,2.1,171,56.3C154.4,110.5,163.3,173.8,139.1,202.2C114.8,230.7,57.4,224.3,7.2,214.4C-42.9,204.4,-85.8,190.8,-127.7,168C-169.5,145.3,-210.3,113.4,-227.4,71.4C-244.4,29.4,-237.8,-22.9,-218.9,-68.2C-200.1,-113.4,-169.1,-151.8,-130.6,-177.9C-92.1,-204.1,-46,-218,3.4,-222.8C52.9,-227.5,105.8,-223,151.1,-199Z" fill="#8ed1fc" />
  </g>
</svg>
    